<svg xmlns="http://www.w3.org/2000/svg" viewBox="0 0 8.72 13.7"><title>accessible-ico</title><rect x="0.25" y="0.25" width="8.22" height="11.56" rx="0.98" ry="0.98" fill="none" stroke="#000" stroke-miterlimit="10" stroke-width="0.5"/><rect x="3.93" y="11.71" width="1" height="1.99"/><path d="M11.5,9.77,10.13,8.4a.5.5,0,0,0-.34-.13H8.44V7.65H9.67a.33.33,0,1,0,0-.65H8.44V6.82a.66.66,0,0,0-.66-.66H7.59a.66.66,0,0,0-.66.66V8.48a.66.66,0,0,0,.55.64.42.42,0,0,0,.2.05h2l1.24,1.24a.45.45,0,0,0,.63,0A.45.45,0,0,0,11.5,9.77Z" transform="translate(-4.07 -2.31)"/><circle cx="3.62" cy="2.81" r="0.75"/><path d="M7.93,11.76a2,2,0,0,1-2-2,2,2,0,0,1,.57-1.39V7.64a2.56,2.56,0,1,0,3.86,2.87L9.89,10A2,2,0,0,1,7.93,11.76Z" transform="translate(-4.07 -2.31)"/></svg>