<svg xmlns="http://www.w3.org/2000/svg" viewBox="0 0 16.32 19.8"><title>bike-ico</title><path d="M16,11.54h0s0-.09.05-.13A8,8,0,0,0,16.63,9c0-.37,0-.59,0-.59A8.17,8.17,0,0,0,11.22.67a6.77,6.77,0,0,0-5.44,0A8.17,8.17,0,0,0,.34,8.36s0,.22,0,.59A8,8,0,0,0,.93,11.4s0,.08,0,.13H1A10.2,10.2,0,0,0,6.07,17h0l.27.17C7,18.07,7.67,19,8.5,19.9c.83-.94,1.54-1.83,2.18-2.69L11,17h0A10.2,10.2,0,0,0,16,11.54Z" transform="translate(-0.34 -0.1)" fill="#3a3a3a"/><circle cx="3.9" cy="10.09" r="2.04" fill="none" stroke="#fff" stroke-miterlimit="10" stroke-width="0.8"/><circle cx="12.42" cy="10.09" r="2.04" fill="none" stroke="#fff" stroke-miterlimit="10" stroke-width="0.8"/><polygon points="12.79 10.27 8.35 10.27 9.87 6.94 12.79 10.27" fill="none" stroke="#fff" stroke-linecap="round" stroke-linejoin="round" stroke-width="0.8"/><polygon points="5.41 6.91 8.34 10.25 9.85 6.91 5.41 6.91" fill="none" stroke="#fff" stroke-linecap="round" stroke-linejoin="round" stroke-width="0.8"/><line x1="3.9" y1="10.09" x2="5.94" y2="4.39" fill="none" stroke="#fff" stroke-linecap="round" stroke-linejoin="round" stroke-width="0.8"/><line x1="9.6" y1="7.54" x2="10.38" y2="5.81" fill="none" stroke="#fff" stroke-linecap="round" stroke-linejoin="round" stroke-width="0.8"/><line x1="5.95" y1="4.39" x2="7.51" y2="4.39" fill="none" stroke="#fff" stroke-linecap="round" stroke-linejoin="round" stroke-width="0.8"/><rect x="9.36" y="5.43" width="1.73" height="0.54" rx="0.27" ry="0.27" fill="#fff"/></svg>