<svg xmlns="http://www.w3.org/2000/svg" viewBox="0 0 16.94 14.13"><title>car-ico</title><rect x="0.07" y="10.7" width="2.53" height="3.43" rx="0.94" ry="0.94"/><rect x="14.28" y="10.7" width="2.53" height="3.43" rx="0.94" ry="0.94"/><path d="M8.5.67" transform="translate(-0.06 -0.48)" fill="#fff" stroke="#000" stroke-miterlimit="10" stroke-width="1.05"/><path d="M15.32,8.94a1.11,1.11,0,0,1-.84.4H12.72a1.11,1.11,0,0,1-.84-.4H5a1.09,1.09,0,0,1-.84.4H2.38a1.09,1.09,0,0,1-.83-.4H.13v3.3H16.87V8.94Z" transform="translate(-0.06 -0.48)"/><rect x="14.28" y="3.58" width="2.66" height="1.52" rx="0.62" ry="0.62"/><rect y="3.58" width="2.66" height="1.52" rx="0.62" ry="0.62"/><path d="M2.72,6.06a.49.49,0,0,1-.48-.46c0-.12-.12-2.95,1.2-4.35A2.45,2.45,0,0,1,5.27.48h6.82a2.43,2.43,0,0,1,1.82.77c1.33,1.4,1.21,4.23,1.2,4.35a.46.46,0,0,1-.5.46.49.49,0,0,1-.45-.5s.11-2.55-.94-3.65a1.48,1.48,0,0,0-1.13-.47H5.27a1.5,1.5,0,0,0-1.14.47c-.87.91-1,2.94-.93,3.65a.49.49,0,0,1-.46.5Z" transform="translate(-0.06 -0.48)"/><path d="M13.45,5H3.55A3.43,3.43,0,0,0,.13,8.44v.38a3.43,3.43,0,0,0,3.42,3.42h9.9a3.43,3.43,0,0,0,3.42-3.42V8.44A3.43,3.43,0,0,0,13.45,5ZM5.27,8.21A1.14,1.14,0,0,1,4.14,9.34H2.38A1.13,1.13,0,0,1,1.26,8.21V8.09A1.12,1.12,0,0,1,2.38,7H4.14A1.13,1.13,0,0,1,5.27,8.09Zm10.34,0a1.14,1.14,0,0,1-1.13,1.13H12.72A1.13,1.13,0,0,1,11.6,8.21V8.09A1.12,1.12,0,0,1,12.72,7h1.76a1.13,1.13,0,0,1,1.13,1.12Z" transform="translate(-0.06 -0.48)"/></svg>