<svg xmlns="http://www.w3.org/2000/svg" viewBox="0 0 16.32 20.96"><title>classroom-ico</title><ellipse cx="8.16" cy="20.05" rx="3.62" ry="0.91" opacity="0.2"/><path d="M16,11.54h0s0-.09.05-.13A8,8,0,0,0,16.63,9c0-.37,0-.59,0-.59A8.17,8.17,0,0,0,11.22.67a6.77,6.77,0,0,0-5.44,0A8.17,8.17,0,0,0,.34,8.36s0,.22,0,.59A8,8,0,0,0,.93,11.4s0,.08,0,.13H1A10.2,10.2,0,0,0,6.07,17h0l.27.17C7,18.07,7.67,19,8.5,19.9c.83-.94,1.54-1.83,2.18-2.69L11,17h0A10.2,10.2,0,0,0,16,11.54Z" transform="translate(-0.34 -0.1)" fill="#4a7234"/><path d="M4.83,6.91V10.2s.67,1.26,3.67,1.26v-4Z" transform="translate(-0.34 -0.1)" fill="#fff"/><path d="M12.17,6.91V10.2s-.67,1.26-3.67,1.26v-4Z" transform="translate(-0.34 -0.1)" fill="#fff"/><path d="M8.5,9,8.38,9,2.33,6.82a.37.37,0,0,1-.25-.35.39.39,0,0,1,.25-.36L8.38,4,8.5,4l.12,0,6.05,2.13a.39.39,0,0,1,.25.36.37.37,0,0,1-.25.35L8.62,9Z" transform="translate(-0.34 -0.1)" fill="#fff"/><path d="M8.5,4.34l6,2.13L8.5,8.6l-6-2.13,6-2.13m0-.75a.73.73,0,0,0-.25,0l-6,2.13a.76.76,0,0,0-.5.71.73.73,0,0,0,.5.7l6,2.13a.65.65,0,0,0,.5,0l6-2.13a.73.73,0,0,0,.5-.7.76.76,0,0,0-.5-.71l-6-2.13a.73.73,0,0,0-.25,0Z" transform="translate(-0.34 -0.1)" fill="#4a7234"/><rect x="13.37" y="6.37" width="0.38" height="4.61" fill="#fff"/><path d="M13.91,10.9s-.44.08-.44,1.06h.44Z" transform="translate(-0.34 -0.1)" fill="#fff"/><path d="M13.91,10.9s.43.08.43,1.06h-.43Z" transform="translate(-0.34 -0.1)" fill="#fff"/></svg>