<svg xmlns="http://www.w3.org/2000/svg" viewBox="0 0 16.82 21.21"><title>classroom-ico</title><ellipse cx="8.41" cy="20.3" rx="3.62" ry="0.91" opacity="0.2"/><path d="M16,11.93h0c0-.05,0-.09.05-.13a8,8,0,0,0,.56-2.45c0-.37,0-.59,0-.59a8.14,8.14,0,0,0-5.44-7.68,6.67,6.67,0,0,0-5.44,0A8.14,8.14,0,0,0,.34,8.75s0,.22,0,.59a8,8,0,0,0,.56,2.45s0,.08,0,.13H1a10.21,10.21,0,0,0,5.08,5.5h0l.27.17c.64.86,1.35,1.75,2.18,2.69.83-.94,1.54-1.83,2.18-2.69l.27-.17h0A10.21,10.21,0,0,0,16,11.93Z" transform="translate(-0.09 -0.24)" fill="#4a7234" stroke="#fff" stroke-linecap="round" stroke-linejoin="round" stroke-width="0.5"/><path d="M4.83,7.3v3.29s.67,1.26,3.67,1.26v-4Z" transform="translate(-0.09 -0.24)" fill="#fff"/><path d="M12.17,7.3v3.29s-.67,1.26-3.67,1.26v-4Z" transform="translate(-0.09 -0.24)" fill="#fff"/><path d="M8.5,9.36l-.12,0L2.33,7.21a.37.37,0,0,1-.25-.35.39.39,0,0,1,.25-.36L8.38,4.38l.12,0,.12,0L14.67,6.5a.39.39,0,0,1,.25.36.37.37,0,0,1-.25.35L8.62,9.34Z" transform="translate(-0.09 -0.24)" fill="#fff"/><path d="M8.5,4.73l6,2.13L8.5,9l-6-2.13,6-2.13M8.5,4a.73.73,0,0,0-.25,0l-6,2.13a.75.75,0,0,0,0,1.42l6,2.12a.65.65,0,0,0,.5,0l6-2.12a.75.75,0,0,0,0-1.42L8.75,4A.73.73,0,0,0,8.5,4Z" transform="translate(-0.09 -0.24)" fill="#4a7234"/><rect x="13.62" y="6.62" width="0.38" height="4.61" fill="#fff"/><path d="M13.91,11.29s-.44.09-.44,1.06h.44Z" transform="translate(-0.09 -0.24)" fill="#fff"/><path d="M13.91,11.29s.43.09.43,1.06h-.43Z" transform="translate(-0.09 -0.24)" fill="#fff"/></svg>