<svg xmlns="http://www.w3.org/2000/svg" viewBox="0 0 16.82 21.21"><title>dorm-ico</title><ellipse cx="8.41" cy="20.3" rx="3.62" ry="0.91" opacity="0.2"/><path d="M16,11.93h0c0-.05,0-.09.05-.13a8,8,0,0,0,.56-2.45c0-.37,0-.59,0-.59a8.14,8.14,0,0,0-5.44-7.68,6.67,6.67,0,0,0-5.44,0A8.14,8.14,0,0,0,.34,8.75s0,.22,0,.59a8,8,0,0,0,.56,2.45s0,.08,0,.13H1a10.21,10.21,0,0,0,5.08,5.5h0l.27.17c.64.86,1.35,1.75,2.18,2.69.83-.94,1.54-1.83,2.18-2.69l.27-.17h0A10.21,10.21,0,0,0,16,11.93Z" transform="translate(-0.09 -0.24)" fill="#698dcc" stroke="#fff" stroke-linecap="round" stroke-linejoin="round" stroke-width="0.5"/><rect x="3.08" y="8.96" width="10.67" height="2.82" fill="#fff"/><rect x="3.08" y="4.5" width="0.93" height="8.03" fill="#fff"/><rect x="12.81" y="9.77" width="0.93" height="2.75" fill="#fff"/><circle cx="5.96" cy="6.98" r="1.34" fill="#fff"/><path d="M10.72,6.52H8.27a2.26,2.26,0,0,1-.3,2h5.86Z" transform="translate(-0.09 -0.24)" fill="#fff"/></svg>