<svg xmlns="http://www.w3.org/2000/svg" viewBox="0 0 32.45 32.45"><title>earth-ico</title><circle cx="16.23" cy="16.23" r="15.73" fill="none" stroke="#fff" stroke-miterlimit="10"/><path d="M24.36,28.11s-1.05,0-1.31-.37a1.23,1.23,0,0,1-.15-1.2c.16-.22.7-.73.63-.95s-.23-.22-.73-.19-.92.1-1.21-.19a1.93,1.93,0,0,0-.93-.57c-.43-.13-.65-.52-1.13-.44a3,3,0,0,1-2.31-1.05c-.18-.26.18-.35-.27-.89s-.95-1-1-1.37-.28-.86-.31-.5a4.07,4.07,0,0,0,.61,1.6c.26.46.23.67,0,.4a7.78,7.78,0,0,1-1-2.18c-.18-.78-.39-.77-.56-1.44a3.11,3.11,0,0,1,.3-1.94c.21-.43.36-.51.21-1.06a4.53,4.53,0,0,1,0-1.52c0-.66-.11-1.47-.56-1.25s-.65.53-1.24.34c.35-.13.82,0,.92-.51s.47-.22.91-.62.53-.63.93-.63.31.48.55.52a2.75,2.75,0,0,1,1,.2c.34.19.32-.09.28-.12s-.43,0-.34-.24a.56.56,0,0,1,.65-.28c.13.09.18.27.29.27s.27-.11.36.1.16.87.46.79.26-.52.5-.3c0,0,.67.38.29.8s-.82.78-.66,1c.18.06.13.14.27.31s.31,0,.82.2.49.33.68.63.53.46.55.34-.37-.54-.22-.79.22-.29,0-.72-.42-.79-.21-.81.86,0,1,.34.47.3.47.09.11-.28.5.08a1.23,1.23,0,0,0,.7.4.91.91,0,0,1,.52.6c0,.31-.48.23-.75.48s-.48.47-.49.73.62-.76.8,0-.57.62-.53,1.06.24.33-.19.78-.42.61-.32,1-.82.75-.86,1.25a1.78,1.78,0,0,0,.29,1c.14.34.3.77,0,.7s-.48-.69-.57-.93S21,20.78,20.71,21s-.33.12-.77.21A1.11,1.11,0,0,0,19,22.75c.44,1,.55.93,1,.86s.55-.34.77-.49.57-.33.61-.1-.55,1.25-.12,1.18,1-.31,1,.21.13.81.54.71.62.07.91-.15.33-.79,1.1-.81.4.07.88-.1.45-.33.82-.24.26.31.59.2.66-.41.82-.07l.29.63A9.58,9.58,0,0,1,24.36,28.11Z" transform="translate(-3.77 -2.88)"/><circle cx="16.23" cy="17.12" r="9.78" fill="none" stroke="#000" stroke-miterlimit="10" stroke-width="1.83"/></svg>