<svg xmlns="http://www.w3.org/2000/svg" viewBox="0 0 20.9 20.9"><title>earth</title><path d="M23.5,19.81l0-.06-.29-.65c-.17-.35-.51,0-.85.08s-.22-.12-.6-.21-.35.07-.85.25-.11.08-.9.1-.84.61-1.13.83-.52.06-.94.16-.55-.2-.55-.73-.59-.29-1-.22.16-1,.12-1.21-.4,0-.63.1-.33.43-.79.5-.58.15-1-.88a1.12,1.12,0,0,1-.09-.36A1.14,1.14,0,0,1,15,16.29c.45-.1.49,0,.79-.22s1.24-.18,1.33.06.28.89.58,1,.15-.37,0-.72a1.81,1.81,0,0,1-.29-1c0-.51,1-.88.88-1.29s-.11-.56.33-1,.24-.35.19-.81.73-.31.55-1.09-.83.27-.82,0,.22-.49.5-.75.77-.17.77-.49a.92.92,0,0,0-.53-.62,1.25,1.25,0,0,1-.72-.41c-.4-.37-.52-.3-.52-.08s-.34.25-.48-.09-.81-.38-1-.35,0,.39.22.83.15.48,0,.74.24.69.22.81-.37,0-.56-.35-.18-.44-.7-.65-.7,0-.84-.2-.1-.26-.28-.32c-.17-.23.29-.6.68-1s-.3-.82-.3-.82c-.25-.23-.21.22-.52.31s-.38-.6-.47-.82-.26-.1-.37-.1-.16-.18-.3-.28a.59.59,0,0,0-.67.29C12.58,7,13,7,13,7s.06.32-.28.12a2.82,2.82,0,0,0-1-.2c-.22,0-.19-.42-.47-.51h0l0,0-.11,0-.07,0h-.28a2.54,2.54,0,0,0-.39,0h-.2a.43.43,0,0,0-.31.19l-.1.07a.46.46,0,0,0-.31,0,1.81,1.81,0,0,0-.64.31A.45.45,0,0,0,8.68,7h0a1.3,1.3,0,0,0-.39.14s0,0-.07,0a.52.52,0,0,0,.17,1H8.3c.61.2.81-.12,1.28-.35s.57.61.57,1.29a5.1,5.1,0,0,0,0,1.56c.16.57,0,.65-.21,1.09a3.16,3.16,0,0,0-.31,2c.17.69.39.68.57,1.48a8.43,8.43,0,0,0,1,2.24c.24.28.27.06,0-.41a4.24,4.24,0,0,1-.62-1.65c0-.37.26.14.31.52s.57.85,1,1.41.1.64.28.91a3.06,3.06,0,0,0,2.38,1.08c.49-.08.72.32,1.16.45a2,2,0,0,1,1,.59c.29.3.73.23,1.24.2s.68,0,.75.19-.48.75-.65,1A1.24,1.24,0,0,0,18.23,23c.26.38,1.34.38,1.34.38h0c.35,0,.7,0,1.05,0a2.31,2.31,0,0,0,.6-.14.42.42,0,0,0,.37-.49.59.59,0,0,0,.2-.19,9.17,9.17,0,0,1,.87-1,6.67,6.67,0,0,0,.48-.7.48.48,0,0,0,.35-.15l.12-.12A.51.51,0,0,0,23.5,19.81Z" transform="translate(-4.64 -4.59)"/><circle cx="10.45" cy="10.45" r="10.06" fill="none" stroke="#000" stroke-miterlimit="10" stroke-width="0.78"/></svg>