<svg xmlns="http://www.w3.org/2000/svg" viewBox="0 0 16.32 20.96"><title>food-ico</title><ellipse cx="8.07" cy="20.05" rx="3.62" ry="0.91" opacity="0.2"/><path d="M16.1,11.54h0s0-.09,0-.13A8.27,8.27,0,0,0,16.72,9a5.19,5.19,0,0,0,0-.59A8.17,8.17,0,0,0,11.31.67,6.83,6.83,0,0,0,8.59.1,6.91,6.91,0,0,0,5.86.67,8.17,8.17,0,0,0,.43,8.36,4.28,4.28,0,0,0,.46,9,8,8,0,0,0,1,11.4s0,.08,0,.13h0A10.19,10.19,0,0,0,6.16,17h0l.26.17C7,18.07,7.76,19,8.59,19.9c.82-.94,1.54-1.83,2.18-2.69L11,17h0A10.19,10.19,0,0,0,16.1,11.54Z" transform="translate(-0.43 -0.1)" fill="#cc1944"/><path d="M11.59,5.93A3,3,0,0,1,8.5,8.75,3,3,0,0,1,5.41,5.93Z" transform="translate(-0.43 -0.1)" fill="#fff"/><rect x="7.62" y="3.48" width="1.04" height="2.73" fill="#fff"/><rect x="4.99" y="3.48" width="1.04" height="2.73" fill="#fff"/><rect x="10.12" y="3.48" width="1.04" height="2.73" fill="#fff"/><rect x="7.39" y="7.88" width="1.54" height="5.65" fill="#fff"/><path d="M5,6.21h6.17a0,0,0,0,1,0,0V7.45a1.1,1.1,0,0,1-1.1,1.1h-4A1.1,1.1,0,0,1,5,7.45V6.21a0,0,0,0,1,0,0Z" fill="#fff"/></svg>