<svg xmlns="http://www.w3.org/2000/svg" viewBox="0 0 16.82 21.21"><title>food-ico</title><ellipse cx="8.32" cy="20.3" rx="3.62" ry="0.91" opacity="0.2"/><path d="M16.1,11.93h0c0-.05,0-.09,0-.13a8.27,8.27,0,0,0,.57-2.45,5.19,5.19,0,0,0,0-.59,8.15,8.15,0,0,0-5.43-7.68A6.66,6.66,0,0,0,8.59.49a6.75,6.75,0,0,0-2.73.58A8.15,8.15,0,0,0,.43,8.75a4.28,4.28,0,0,0,0,.59A8,8,0,0,0,1,11.79s0,.08,0,.13h0a10.2,10.2,0,0,0,5.09,5.5h0l.26.17c.64.86,1.36,1.75,2.19,2.69.82-.94,1.54-1.83,2.18-2.69l.27-.17h0A10.2,10.2,0,0,0,16.1,11.93Z" transform="translate(-0.18 -0.24)" fill="#cc1944" stroke="#fff" stroke-linecap="round" stroke-linejoin="round" stroke-width="0.5"/><path d="M11.59,6.32A3,3,0,0,1,8.5,9.14,3,3,0,0,1,5.41,6.32Z" transform="translate(-0.18 -0.24)" fill="#fff"/><rect x="7.87" y="3.73" width="1.04" height="2.73" fill="#fff"/><rect x="5.24" y="3.73" width="1.04" height="2.73" fill="#fff"/><rect x="10.37" y="3.73" width="1.04" height="2.73" fill="#fff"/><rect x="7.64" y="8.13" width="1.54" height="5.65" fill="#fff"/><path d="M5.24,6.46h6.17a0,0,0,0,1,0,0V7.7a1.1,1.1,0,0,1-1.1,1.1h-4a1.1,1.1,0,0,1-1.1-1.1V6.46a0,0,0,0,1,0,0Z" fill="#fff"/></svg>