<svg xmlns="http://www.w3.org/2000/svg" viewBox="0 0 16.32 19.8"><title>handicap-ico</title><path d="M16,11.54h0s0-.09.05-.13A8,8,0,0,0,16.63,9c0-.37,0-.59,0-.59A8.17,8.17,0,0,0,11.22.67a6.77,6.77,0,0,0-5.44,0A8.17,8.17,0,0,0,.34,8.36s0,.22,0,.59A8,8,0,0,0,.93,11.4s0,.08,0,.13H1A10.2,10.2,0,0,0,6.07,17h0l.27.17C7,18.07,7.67,19,8.5,19.9c.83-.94,1.54-1.83,2.18-2.69L11,17h0A10.2,10.2,0,0,0,16,11.54Z" transform="translate(-0.34 -0.1)" fill="#0057b8"/><rect x="3.98" y="2.47" width="8.22" height="11.56" rx="0.98" ry="0.98" fill="none" stroke="#fff" stroke-miterlimit="10" stroke-width="0.5"/><rect x="7.66" y="13.92" width="1" height="1.99" fill="#fff"/><path d="M11.5,9.77,10.13,8.4a.5.5,0,0,0-.34-.13H8.44V7.65H9.67a.33.33,0,1,0,0-.65H8.44V6.82a.66.66,0,0,0-.66-.66H7.59a.66.66,0,0,0-.66.66V8.48a.66.66,0,0,0,.55.64.42.42,0,0,0,.2.05h2l1.24,1.24a.45.45,0,0,0,.63,0A.45.45,0,0,0,11.5,9.77Z" transform="translate(-0.34 -0.1)" fill="#fff"/><circle cx="7.34" cy="5.03" r="0.75" fill="#fff"/><path d="M7.93,11.76a2,2,0,0,1-2-2,2,2,0,0,1,.57-1.39V7.64a2.56,2.56,0,1,0,3.86,2.87L9.89,10A2,2,0,0,1,7.93,11.76Z" transform="translate(-0.34 -0.1)" fill="#fff"/></svg>