<svg xmlns="http://www.w3.org/2000/svg" viewBox="0 0 18.02 21.5"><title>hidden-ico</title><path d="M16.89,12.63v0l0-.12A8.09,8.09,0,0,0,17.5,10a4.24,4.24,0,0,0,0-.59A8.15,8.15,0,0,0,12.1,1.76a6.69,6.69,0,0,0-5.45,0A8.15,8.15,0,0,0,1.22,9.44a4.24,4.24,0,0,0,0,.59,8.09,8.09,0,0,0,.56,2.46l0,.12v0A10.22,10.22,0,0,0,7,18.12h0l.27.18C7.83,19.15,8.55,20,9.38,21c.82-.94,1.54-1.83,2.18-2.68l.27-.18h0A10.22,10.22,0,0,0,16.89,12.63Z" transform="translate(-0.45 -0.33)" fill="#c00"/><path d="M9.46,21.41a.41.41,0,0,1-.32-.15C8.38,20.4,7.67,19.53,7,18.61a1,1,0,0,0-.19-.12l-.07,0a10.69,10.69,0,0,1-5.17-5.66l.34-.29-.39.15a8.3,8.3,0,0,1-.59-2.58,4.69,4.69,0,0,1,0-.62A8.58,8.58,0,0,1,6.59,1.36,7,7,0,0,1,9.46.76a7.09,7.09,0,0,1,2.9.61A8.57,8.57,0,0,1,18,9.44h0a4.86,4.86,0,0,1,0,.63,8.3,8.3,0,0,1-.59,2.57l-.44,0,.4.13a10.64,10.64,0,0,1-5.18,5.7l-.07,0a1.51,1.51,0,0,0-.19.12c-.69.92-1.4,1.79-2.16,2.65A.41.41,0,0,1,9.46,21.41Z" transform="translate(-0.45 -0.33)" fill="#c00"/><path d="M9.46,1.18a6.66,6.66,0,0,1,2.72.58,8.14,8.14,0,0,1,5.44,7.68s0,.23,0,.59A8.09,8.09,0,0,1,17,12.49l-.05.12v0a10.19,10.19,0,0,1-5.08,5.49h0l-.27.18C11,19.15,10.29,20,9.46,21,8.63,20,7.92,19.15,7.28,18.3L7,18.12H7A10.23,10.23,0,0,1,2,12.63v0l-.05-.12A8.4,8.4,0,0,1,1.33,10c0-.36,0-.59,0-.59A8.14,8.14,0,0,1,6.74,1.76a6.66,6.66,0,0,1,2.72-.58m0-.85a7.61,7.61,0,0,0-3,.64,9,9,0,0,0-6,8.47s0,.27,0,.67a8.87,8.87,0,0,0,.63,2.69l0,.11,0,.05a11,11,0,0,0,5.32,5.83l.08.06.12.08c.68.9,1.38,1.75,2.13,2.61a.84.84,0,0,0,.64.29.82.82,0,0,0,.64-.29c.75-.86,1.45-1.71,2.13-2.61l.12-.08.09-.06a11.05,11.05,0,0,0,5.33-5.86l0-.11a9.12,9.12,0,0,0,.63-2.73c0-.38,0-.63,0-.66A9,9,0,0,0,12.5,1a7.61,7.61,0,0,0-3-.64Z" transform="translate(-0.45 -0.33)" fill="#fff"/><circle cx="9" cy="9.36" r="8.23" fill="#c00"/><rect x="8.38" y="4.42" width="2.13" height="10.54" rx="0.73" ry="0.73" transform="translate(9.17 -4.18) rotate(45)" fill="#fff"/><rect x="8.38" y="4.42" width="2.13" height="10.54" rx="0.73" ry="0.73" transform="translate(-4.54 9.19) rotate(-45)" fill="#fff"/></svg>