<svg xmlns="http://www.w3.org/2000/svg" viewBox="0 0 16.82 21.21"><title>inclusive-ico</title><ellipse cx="8.41" cy="20.3" rx="3.62" ry="0.91" opacity="0.2"/><path d="M16,11.93h0c0-.05,0-.09.05-.13a8,8,0,0,0,.56-2.45c0-.37,0-.59,0-.59a8.14,8.14,0,0,0-5.44-7.68,6.67,6.67,0,0,0-5.44,0A8.14,8.14,0,0,0,.34,8.75s0,.22,0,.59a8,8,0,0,0,.56,2.45s0,.08,0,.13H1a10.21,10.21,0,0,0,5.08,5.5h0l.27.17c.64.86,1.35,1.75,2.18,2.69.83-.94,1.54-1.83,2.18-2.69l.27-.17h0A10.21,10.21,0,0,0,16,11.93Z" transform="translate(-0.09 -0.24)" fill="#08315f" stroke="#fff" stroke-linecap="round" stroke-linejoin="round" stroke-width="0.5"/><circle cx="8.44" cy="2.78" r="1.45" fill="#fff"/><path d="M8.44,4.93H6.85A1.71,1.71,0,0,0,5,6.39V9.78c0,.66,1.29.66,1.3,0V6.66h.32v8.61c0,.9,1.71.87,1.71,0v-5h.16Z" transform="translate(-0.09 -0.24)" fill="#fff"/><path d="M12.61,9.09,11.32,5.94a2.1,2.1,0,0,0-1.84-1h-1v6.66h.21v3.82c0,.7,1.4.7,1.38,0V11.59h1.89l-2-5.11h.37l1.15,2.91C11.7,10.05,12.87,9.77,12.61,9.09Z" transform="translate(-0.09 -0.24)" fill="#fff"/><path d="M8.69,11.41H8.14V9.78l.69.07s0,.43,0,.48S8.69,11.41,8.69,11.41Z" transform="translate(-0.09 -0.24)" fill="#fff"/><path d="M8.65,11.59H8.1a3.7,3.7,0,0,1,.13-.4H8.5l.19.22Z" transform="translate(-0.09 -0.24)" fill="#fff"/><rect x="8.15" y="4.5" width="0.45" height="10.98" fill="#08315f"/></svg>