<svg xmlns="http://www.w3.org/2000/svg" viewBox="0 0 16.32 19.8"><title>inclusive</title><path d="M16,11.54h0s0-.09.05-.13A8,8,0,0,0,16.63,9c0-.37,0-.59,0-.59A8.17,8.17,0,0,0,11.22.67a6.77,6.77,0,0,0-5.44,0A8.17,8.17,0,0,0,.34,8.36s0,.22,0,.59A8,8,0,0,0,.93,11.4s0,.08,0,.13H1A10.2,10.2,0,0,0,6.07,17h0l.27.17C7,18.07,7.67,19,8.5,19.9c.83-.94,1.54-1.83,2.18-2.69L11,17h0A10.2,10.2,0,0,0,16,11.54Z" transform="translate(-0.34 -0.1)" fill="#08315f"/><circle cx="8.19" cy="2.53" r="1.45" fill="#fff"/><path d="M8.44,4.54H6.85A1.71,1.71,0,0,0,5,6V9.39c0,.66,1.29.66,1.3,0V6.27h.32v8.61c0,.9,1.71.87,1.71,0v-5h.16Z" transform="translate(-0.34 -0.1)" fill="#fff"/><path d="M12.61,8.7,11.32,5.55a2.12,2.12,0,0,0-1.84-1h-1V11.2h.21V15c0,.69,1.4.7,1.38,0V11.2h1.89l-2-5.11h.37L11.41,9C11.7,9.66,12.87,9.38,12.61,8.7Z" transform="translate(-0.34 -0.1)" fill="#fff"/><path d="M8.69,11H8.14V9.38l.69.07s0,.44,0,.49S8.69,11,8.69,11Z" transform="translate(-0.34 -0.1)" fill="#fff"/><path d="M8.65,11.2H8.1a3.7,3.7,0,0,1,.13-.4,2.42,2.42,0,0,1,.27,0l.19.22Z" transform="translate(-0.34 -0.1)" fill="#fff"/><rect x="7.94" y="4.25" width="0.37" height="7.13" fill="#08315f"/></svg>