<svg xmlns="http://www.w3.org/2000/svg" viewBox="0 0 16.82 21.21"><title>interest-ico</title><ellipse cx="8.41" cy="20.3" rx="3.62" ry="0.91" opacity="0.2"/><path d="M16,11.93h0c0-.05,0-.09.05-.13a8,8,0,0,0,.56-2.45c0-.37,0-.59,0-.59a8.14,8.14,0,0,0-5.44-7.68,6.67,6.67,0,0,0-5.44,0A8.14,8.14,0,0,0,.34,8.75s0,.22,0,.59a8,8,0,0,0,.56,2.45s0,.08,0,.13H1a10.21,10.21,0,0,0,5.08,5.5h0l.27.17c.64.86,1.35,1.75,2.18,2.69.83-.94,1.54-1.83,2.18-2.69l.27-.17h0A10.21,10.21,0,0,0,16,11.93Z" transform="translate(-0.09 -0.24)" fill="#d15a09" stroke="#fff" stroke-linecap="round" stroke-linejoin="round" stroke-width="0.5"/><polygon points="8.41 3.44 9.67 7.31 13.74 7.31 10.45 9.71 11.7 13.58 8.41 11.19 5.12 13.58 6.37 9.71 3.08 7.31 7.15 7.31 8.41 3.44" fill="#fff"/></svg>