<svg xmlns="http://www.w3.org/2000/svg" viewBox="0 0 16.32 20.96"><title>interest-ico</title><ellipse cx="8.16" cy="20.05" rx="3.62" ry="0.91" opacity="0.2"/><path d="M16,11.54h0s0-.09.05-.13A8,8,0,0,0,16.63,9c0-.37,0-.59,0-.59A8.17,8.17,0,0,0,11.22.67a6.77,6.77,0,0,0-5.44,0A8.17,8.17,0,0,0,.34,8.36s0,.22,0,.59A8,8,0,0,0,.93,11.4s0,.08,0,.13H1A10.2,10.2,0,0,0,6.07,17h0l.27.17C7,18.07,7.67,19,8.5,19.9c.83-.94,1.54-1.83,2.18-2.69L11,17h0A10.2,10.2,0,0,0,16,11.54Z" transform="translate(-0.34 -0.1)" fill="#d15a09"/><polygon points="8.16 3.19 9.42 7.06 13.49 7.06 10.2 9.46 11.45 13.33 8.16 10.94 4.87 13.33 6.12 9.46 2.83 7.06 6.9 7.06 8.16 3.19" fill="#fff"/></svg>