<svg xmlns="http://www.w3.org/2000/svg" viewBox="0 0 18.16 18.16"><title>libraryC-ico</title><circle cx="9.08" cy="9.08" r="8.66" fill="#689f38"/><path d="M9.45,1.46A8.23,8.23,0,1,1,1.22,9.69,8.23,8.23,0,0,1,9.45,1.46m0-.85a9.08,9.08,0,1,0,9.08,9.08A9.09,9.09,0,0,0,9.45.61Z" transform="translate(-0.37 -0.61)" fill="#fff"/><path d="M9.21,12.63a3.22,3.22,0,0,0-4.24,0V6.42a3.2,3.2,0,0,1,4.24,0Z" transform="translate(-0.37 -0.61)" fill="#fff"/><path d="M9.61,12.63a3.22,3.22,0,0,1,4.24,0V6.42a3.2,3.2,0,0,0-4.24,0Z" transform="translate(-0.37 -0.61)" fill="#fff"/><path d="M14.64,13.86H4.19a.35.35,0,0,1-.33-.37.36.36,0,0,1,.33-.38H14.64a.35.35,0,0,1,.32.38A.34.34,0,0,1,14.64,13.86Z" transform="translate(-0.37 -0.61)" fill="#fff"/><path d="M3.63,13.65v-7c0-.12.16-.21.37-.21s.38.09.38.21v7c0,.12-.17.21-.38.21S3.63,13.77,3.63,13.65Z" transform="translate(-0.37 -0.61)" fill="#fff"/><path d="M14.45,13.65v-7c0-.12.17-.21.38-.21s.37.09.37.21v7c0,.12-.17.21-.37.21S14.45,13.77,14.45,13.65Z" transform="translate(-0.37 -0.61)" fill="#fff"/><path d="M9.12,12.84v-7a.26.26,0,0,1,.29-.22c.17,0,.3.1.3.22v7c0,.12-.13.22-.3.22A.26.26,0,0,1,9.12,12.84Z" transform="translate(-0.37 -0.61)" fill="#689f38"/></svg>