<svg xmlns="http://www.w3.org/2000/svg" viewBox="0 0 16.82 21.21"><title>office-ico</title><ellipse cx="8.41" cy="20.3" rx="3.62" ry="0.91" opacity="0.2"/><path d="M16,11.93h0c0-.05,0-.09.05-.13a8,8,0,0,0,.56-2.45c0-.37,0-.59,0-.59a8.14,8.14,0,0,0-5.44-7.68,6.67,6.67,0,0,0-5.44,0A8.14,8.14,0,0,0,.34,8.75s0,.22,0,.59a8,8,0,0,0,.56,2.45s0,.08,0,.13H1a10.21,10.21,0,0,0,5.08,5.5h0l.27.17c.64.86,1.35,1.75,2.18,2.69.83-.94,1.54-1.83,2.18-2.69l.27-.17h0A10.21,10.21,0,0,0,16,11.93Z" transform="translate(-0.09 -0.24)" fill="#7c007c" stroke="#fff" stroke-linecap="round" stroke-linejoin="round" stroke-width="0.5"/><path d="M4.68,4.08v9.35h2.6V9.93H9.8v3.5h2.52V4.08Zm3.13,5.3H5.75V7.32H7.81Zm0-2.61H5.75V4.71H7.81Zm3.44,2.61H9.19V7.32h2.06Zm0-2.61H9.19V4.71h2.06Z" transform="translate(-0.09 -0.24)" fill="#fff"/><rect x="0.17" y="9.06" width="8.38" height="0.63" transform="translate(13.64 4.78) rotate(90)" fill="#7c007c"/><rect x="8.46" y="9.06" width="8.38" height="0.63" transform="translate(21.94 -3.51) rotate(90)" fill="#7c007c"/></svg>