<svg xmlns="http://www.w3.org/2000/svg" viewBox="0 0 16.32 20.96"><title>office-ico</title><ellipse cx="8.16" cy="20.05" rx="3.62" ry="0.91" opacity="0.2"/><path d="M16,11.54h0s0-.09.05-.13A8,8,0,0,0,16.63,9c0-.37,0-.59,0-.59A8.17,8.17,0,0,0,11.22.67a6.77,6.77,0,0,0-5.44,0A8.17,8.17,0,0,0,.34,8.36s0,.22,0,.59A8,8,0,0,0,.93,11.4s0,.08,0,.13H1A10.2,10.2,0,0,0,6.07,17h0l.27.17C7,18.07,7.67,19,8.5,19.9c.83-.94,1.54-1.83,2.18-2.69L11,17h0A10.2,10.2,0,0,0,16,11.54Z" transform="translate(-0.34 -0.1)" fill="#7c007c"/><path d="M4.68,3.69V13h2.6V9.54H9.8V13h2.52V3.69ZM7.81,9H5.75V6.93H7.81Zm0-2.62H5.75v-2H7.81ZM11.25,9H9.19V6.93h2.06Zm0-2.62H9.19v-2h2.06Z" transform="translate(-0.34 -0.1)" fill="#fff"/><rect x="0.17" y="8.67" width="8.38" height="0.63" transform="translate(13 4.53) rotate(90)" fill="#7c007c"/><rect x="8.46" y="8.67" width="8.38" height="0.63" transform="translate(21.3 -3.76) rotate(90)" fill="#7c007c"/></svg>