<svg xmlns="http://www.w3.org/2000/svg" viewBox="0 0 16.32 20.96"><title>parking-ico</title><ellipse cx="8.16" cy="20.05" rx="3.62" ry="0.91" opacity="0.2"/><path d="M16,11.54h0s0-.09.05-.13A8,8,0,0,0,16.63,9c0-.37,0-.59,0-.59A8.17,8.17,0,0,0,11.22.67a6.77,6.77,0,0,0-5.44,0A8.17,8.17,0,0,0,.34,8.36s0,.22,0,.59A8,8,0,0,0,.93,11.4s0,.08,0,.13H1A10.2,10.2,0,0,0,6.07,17h0l.27.17C7,18.07,7.67,19,8.5,19.9c.83-.94,1.54-1.83,2.18-2.69L11,17h0A10.2,10.2,0,0,0,16,11.54Z" transform="translate(-0.34 -0.1)" fill="#1b3e96"/><path d="M5.26,13.63v-10H8.52a11.83,11.83,0,0,1,2.41.15,2.62,2.62,0,0,1,1.45,1,3.08,3.08,0,0,1,.58,2,3.21,3.21,0,0,1-.34,1.56,2.67,2.67,0,0,1-.85,1,3,3,0,0,1-1,.48,12.34,12.34,0,0,1-2.11.14H7.29v3.79Zm2-8.35V8.13H8.4A5.55,5.55,0,0,0,10,8a1.34,1.34,0,0,0,.86-1.28,1.3,1.3,0,0,0-.32-.9,1.42,1.42,0,0,0-.82-.45,10.54,10.54,0,0,0-1.46-.07Z" transform="translate(-0.34 -0.1)" fill="#fff"/></svg>