<svg xmlns="http://www.w3.org/2000/svg" viewBox="0 0 16.82 21.21"><title>parking-ico</title><ellipse cx="8.41" cy="20.3" rx="3.62" ry="0.91" opacity="0.2"/><path d="M16,11.93h0c0-.05,0-.09.05-.13a8,8,0,0,0,.56-2.45c0-.37,0-.59,0-.59a8.14,8.14,0,0,0-5.44-7.68,6.67,6.67,0,0,0-5.44,0A8.14,8.14,0,0,0,.34,8.75s0,.22,0,.59a8,8,0,0,0,.56,2.45s0,.08,0,.13H1a10.21,10.21,0,0,0,5.08,5.5h0l.27.17c.64.86,1.35,1.75,2.18,2.69.83-.94,1.54-1.83,2.18-2.69l.27-.17h0A10.21,10.21,0,0,0,16,11.93Z" transform="translate(-0.09 -0.24)" fill="#1b3e96" stroke="#fff" stroke-linecap="round" stroke-linejoin="round" stroke-width="0.5"/><path d="M5.26,14V4H8.52a11.83,11.83,0,0,1,2.41.15,2.62,2.62,0,0,1,1.45,1A3.1,3.1,0,0,1,13,7.06a3.21,3.21,0,0,1-.34,1.56,2.67,2.67,0,0,1-.85,1,3,3,0,0,1-1,.48,12.34,12.34,0,0,1-2.11.14H7.29V14Zm2-8.35V8.53H8.4A5.44,5.44,0,0,0,10,8.37a1.34,1.34,0,0,0,.86-1.28,1.32,1.32,0,0,0-.32-.9,1.42,1.42,0,0,0-.82-.45,10.54,10.54,0,0,0-1.46-.07Z" transform="translate(-0.09 -0.24)" fill="#fff"/></svg>