<svg xmlns="http://www.w3.org/2000/svg" viewBox="0 0 16.82 21.21"><title>printer-ico</title><ellipse cx="8.41" cy="20.3" rx="3.62" ry="0.91" opacity="0.2"/><path d="M16,11.93h0c0-.05,0-.09.05-.13a8,8,0,0,0,.56-2.45c0-.37,0-.59,0-.59a8.14,8.14,0,0,0-5.44-7.68,6.67,6.67,0,0,0-5.44,0A8.14,8.14,0,0,0,.34,8.75s0,.22,0,.59a8,8,0,0,0,.56,2.45s0,.08,0,.13H1a10.21,10.21,0,0,0,5.08,5.5h0l.27.17c.64.86,1.35,1.75,2.18,2.69.83-.94,1.54-1.83,2.18-2.69l.27-.17h0A10.21,10.21,0,0,0,16,11.93Z" transform="translate(-0.09 -0.24)" stroke="#fff" stroke-linecap="round" stroke-linejoin="round" stroke-width="0.5"/><rect x="3.08" y="6.84" width="10.67" height="5.09" rx="1.29" ry="1.29" fill="#fff"/><rect x="4.78" y="9.57" width="7.25" height="4.11" fill="#fff"/><rect x="4.78" y="3.87" width="7.25" height="4.73" fill="#fff"/><rect x="4.78" y="10.12" width="7.25" height="0.63"/><rect x="4.28" y="6.21" width="8.38" height="0.63"/><rect x="10.73" y="3.87" width="2.25" height="0.81" transform="translate(6.41 -7.37) rotate(45)"/><rect x="11.24" y="11.24" width="2.4" height="0.63" transform="translate(23.91 -1.12) rotate(90)"/><rect x="3.36" y="11.24" width="2.4" height="0.63" transform="translate(16.03 6.76) rotate(90)"/><circle cx="4.28" cy="8.28" r="0.63"/></svg>