<svg xmlns="http://www.w3.org/2000/svg" viewBox="0 0 16.32 20.96"><title>printer-ico</title><path d="M16,11.54h0s0-.09.05-.13A8,8,0,0,0,16.63,9c0-.37,0-.59,0-.59A8.17,8.17,0,0,0,11.22.67a6.77,6.77,0,0,0-5.44,0A8.17,8.17,0,0,0,.34,8.36s0,.22,0,.59A8,8,0,0,0,.93,11.4s0,.08,0,.13H1A10.2,10.2,0,0,0,6.07,17h0l.27.17C7,18.07,7.67,19,8.5,19.9c.83-.94,1.54-1.83,2.18-2.69L11,17h0A10.2,10.2,0,0,0,16,11.54Z" transform="translate(-0.34 -0.1)"/><rect x="2.83" y="6.59" width="10.67" height="5.09" rx="1.29" ry="1.29" fill="#fff"/><rect x="4.53" y="9.32" width="7.25" height="4.11" fill="#fff"/><rect x="4.53" y="3.62" width="7.25" height="4.73" fill="#fff"/><rect x="4.53" y="9.87" width="7.25" height="0.63"/><rect x="4.03" y="5.96" width="8.38" height="0.63"/><rect x="10.73" y="3.48" width="2.25" height="0.81" transform="translate(5.88 -7.34) rotate(45)"/><rect x="11.24" y="10.85" width="2.4" height="0.63" transform="translate(23.27 -1.37) rotate(90)"/><rect x="3.36" y="10.85" width="2.4" height="0.63" transform="translate(15.39 6.51) rotate(90)"/><circle cx="4.03" cy="8.03" r="0.63"/><ellipse cx="8.16" cy="20.05" rx="3.62" ry="0.91" opacity="0.2"/></svg>