<svg xmlns="http://www.w3.org/2000/svg" viewBox="0 0 16.29 15"><title>printer-inside-ico</title><polygon points="13.68 1.55 12.14 0 2.61 0 2.61 3.58 13.68 3.58 13.68 1.55"/><path d="M14.68,4.55H2.32a2,2,0,0,0-2,2v3.85A1.94,1.94,0,0,0,2,12.26V9.55H15v2.71a1.94,1.94,0,0,0,1.65-1.9V6.51A2,2,0,0,0,14.68,4.55ZM2.2,7.7a1,1,0,1,1,1-1A1,1,0,0,1,2.2,7.7Z" transform="translate(-0.35)"/><polygon points="2.61 12.33 2.61 13.21 2.61 15 13.68 15 13.68 13.21 13.68 12.33 13.68 10.52 2.61 10.52 2.61 12.33"/></svg>