<svg xmlns="http://www.w3.org/2000/svg" viewBox="0 0 16.46 16.46"><title>recreationC-ico</title><circle cx="8.23" cy="8.23" r="8.23" fill="#8b2233"/><circle cx="10.67" cy="3.71" r="1.14" fill="#fff"/><rect x="8.9" y="6.27" width="1.86" height="4.79" rx="0.49" ry="0.49" transform="translate(3.71 -4.95) rotate(26.61)" fill="#fff"/><rect x="5.79" y="6.47" width="2.96" height="0.99" rx="0.5" ry="0.5" transform="translate(-3.93 4.21) rotate(-36.37)" fill="#fff"/><rect x="7.68" y="6.06" width="2.96" height="0.99" rx="0.5" ry="0.5" transform="translate(-0.01 -2.88) rotate(9.5)" fill="#fff"/><rect x="11.52" y="9.1" width="2.76" height="0.99" rx="0.5" ry="0.5" transform="translate(24.58 17.74) rotate(-180)" fill="#fff"/><rect x="9.84" y="7.9" width="3.43" height="0.99" rx="0.5" ry="0.5" transform="translate(6.56 20.71) rotate(-110.65)" fill="#fff"/><rect x="8.99" y="12.48" width="3.92" height="0.99" rx="0.5" ry="0.5" transform="translate(-5.18 19.65) rotate(-78.45)" fill="#fff"/><rect x="8.41" y="10.47" width="3.43" height="0.99" rx="0.5" ry="0.5" transform="translate(12.72 23.93) rotate(-152.07)" fill="#fff"/><rect x="4.47" y="11.56" width="3.67" height="0.99" rx="0.5" ry="0.5" transform="translate(11.4 22.66) rotate(180)" fill="#fff"/><rect x="6.48" y="10.36" width="3.55" height="0.99" rx="0.5" ry="0.5" transform="translate(-6.35 11.95) rotate(-63.53)" fill="#fff"/></svg>