<svg xmlns="http://www.w3.org/2000/svg" viewBox="0 0 20 20"><title>website-ico</title><path d="M10.46,3.21l.17.16V1.71a7.63,7.63,0,0,1,2.54,3.37l-.64.07,2.61,2.44a15,15,0,0,0-.3-1.54,6.35,6.35,0,0,0,2.33-1A8.63,8.63,0,0,1,18.7,9.37H17l1.35,1.26h.32a2.48,2.48,0,0,1,0,.27L19.8,12a10.5,10.5,0,0,0,.2-2,9.93,9.93,0,0,0-2.24-6.29.49.49,0,0,0-.16-.19A10,10,0,0,0,10,0h0A10,10,0,0,0,2.36,3.57l0,0A9.91,9.91,0,0,0,0,10,10,10,0,0,0,10,20h.06c.14,0,.28,0,.43,0Zm5.9.82a5,5,0,0,1-1.91.81,9.47,9.47,0,0,0-2-3.21A8.73,8.73,0,0,1,16.36,4ZM7.59,1.61a9.49,9.49,0,0,0-2,3.24A5.12,5.12,0,0,1,3.64,4,8.73,8.73,0,0,1,7.59,1.61ZM2.83,5a6.19,6.19,0,0,0,2.37,1,14.88,14.88,0,0,0-.45,3.31H1.3A8.63,8.63,0,0,1,2.83,5ZM2.7,14.78a8.63,8.63,0,0,1-1.4-4.15H4.75a15.33,15.33,0,0,0,.38,3A5.66,5.66,0,0,0,2.7,14.78Zm.78,1a4.39,4.39,0,0,1,2-.93,9.52,9.52,0,0,0,2.11,3.53A8.77,8.77,0,0,1,3.48,15.79Zm5.89,2.48a7.72,7.72,0,0,1-2.63-3.65,20.2,20.2,0,0,1,2.63-.2Zm0-5.12a23.53,23.53,0,0,0-3,.24A14.4,14.4,0,0,1,6,10.63H9.37Zm0-3.78H6A13.8,13.8,0,0,1,6.45,6.3a22.49,22.49,0,0,0,2.92.23Zm0-4.11a20.71,20.71,0,0,1-2.51-.18A7.5,7.5,0,0,1,9.37,1.73Z" transform="translate(0 0)"/><path d="M14.14,18.47l-1.12,1A10.28,10.28,0,0,0,14.35,19Z" transform="translate(0 0)"/><path d="M19.32,14.26,12.47,7.83c0,3.15,0,6.3,0,9.45.79-.75,1.58-1.48,2.37-2.22l1.82,4.23h0l1-.43.25-.11C17.29,17.35,16.65,16,16,14.56Z" transform="translate(0 0)"/></svg>