<svg xmlns="http://www.w3.org/2000/svg" viewBox="0 0 22.52 32.52"><title>YAH-ico</title><path d="M11.37,32.5C.5,20.12,1,12.69,1,12.38a10.75,10.75,0,0,1,21.5,0c0,.27.5,7.7-10.37,20.08l-.38.42Zm.38-25.08a4.38,4.38,0,1,0,4.38,4.37A4.37,4.37,0,0,0,11.75,7.42Z" transform="translate(-0.49 -1.17)" fill="#a00724"/><path d="M11.75,2.17A10.25,10.25,0,0,1,22,12.42s.6,7.38-10.25,19.75C.9,19.8,1.5,12.42,1.5,12.42A10.25,10.25,0,0,1,11.75,2.17m0,14.5a4.88,4.88,0,1,0-4.87-4.88,4.89,4.89,0,0,0,4.87,4.88m0-15.5A11.26,11.26,0,0,0,.5,12.38c0,.74-.18,8.29,10.5,20.45l.75.85.75-.85C23.18,20.67,23,13.12,23,12.38A11.26,11.26,0,0,0,11.75,1.17Zm0,14.5a3.88,3.88,0,1,1,3.88-3.88,3.88,3.88,0,0,1-3.88,3.88Z" transform="translate(-0.49 -1.17)" fill="#fff"/><path d="M22,12.42A10.25,10.25,0,0,0,11.75,2.17c-.34,0-.67,0-1,.05A10.24,10.24,0,0,1,20,12.42s.57,6.92-9.25,18.58c.32.39.66.77,1,1.17C22.6,19.8,22,12.42,22,12.42Z" transform="translate(-0.49 -1.17)" fill="#720721"/><circle cx="11.26" cy="10.63" r="4.88" fill="#fff"/><path d="M8.5,11.79A4.87,4.87,0,0,1,12.56,7a4.28,4.28,0,0,0-.81-.08,4.88,4.88,0,0,0,0,9.75,4.27,4.27,0,0,0,.81-.09A4.85,4.85,0,0,1,8.5,11.79Z" transform="translate(-0.49 -1.17)" fill="#c9c9c9"/></svg>