<svg xmlns="http://www.w3.org/2000/svg" viewBox="0 0 16.46 16.46"><title>classroomC-ico</title><circle cx="8.23" cy="8.23" r="8.23" fill="#4a7234"/><path d="M4.83,6.91V10.2s.67,1.26,3.67,1.26v-4Z" transform="translate(-0.34 -0.38)" fill="#fff"/><path d="M12.17,6.91V10.2s-.67,1.26-3.67,1.26v-4Z" transform="translate(-0.34 -0.38)" fill="#fff"/><path d="M8.5,9,8.38,9,2.33,6.82a.37.37,0,0,1-.25-.35.39.39,0,0,1,.25-.36L8.38,4,8.5,4l.12,0,6.05,2.13a.39.39,0,0,1,.25.36.37.37,0,0,1-.25.35L8.62,9Z" transform="translate(-0.34 -0.38)" fill="#fff"/><path d="M8.5,4.34l6,2.13L8.5,8.6l-6-2.13,6-2.13m0-.75a.73.73,0,0,0-.25,0l-6,2.13a.76.76,0,0,0-.5.71.73.73,0,0,0,.5.7l6,2.13a.65.65,0,0,0,.5,0l6-2.13a.73.73,0,0,0,.5-.7.76.76,0,0,0-.5-.71l-6-2.13a.73.73,0,0,0-.25,0Z" transform="translate(-0.34 -0.38)" fill="#4a7234"/><rect x="13.37" y="6.09" width="0.38" height="4.61" fill="#fff"/><path d="M13.91,10.9s-.44.08-.44,1.06h.44Z" transform="translate(-0.34 -0.38)" fill="#fff"/><path d="M13.91,10.9s.43.08.43,1.06h-.43Z" transform="translate(-0.34 -0.38)" fill="#fff"/></svg>