<svg xmlns="http://www.w3.org/2000/svg" viewBox="0 0 16.46 16.46"><title>foodC-ico</title><circle cx="8.23" cy="8.23" r="8.23" fill="#cc1944"/><path d="M11.59,5.93A3,3,0,0,1,8.5,8.75,3,3,0,0,1,5.41,5.93Z" transform="translate(-0.34 -0.38)" fill="#fff"/><rect x="7.71" y="3.21" width="1.04" height="2.73" fill="#fff"/><rect x="5.07" y="3.21" width="1.04" height="2.73" fill="#fff"/><rect x="10.2" y="3.21" width="1.04" height="2.73" fill="#fff"/><rect x="7.47" y="7.6" width="1.54" height="5.65" fill="#fff"/><path d="M5.07,5.94h6.17a0,0,0,0,1,0,0V7.17a1.1,1.1,0,0,1-1.1,1.1h-4a1.1,1.1,0,0,1-1.1-1.1V5.94a0,0,0,0,1,0,0Z" fill="#fff"/></svg>