<svg xmlns="http://www.w3.org/2000/svg" viewBox="0 0 17.82 21.71"><title>interest-ico</title><ellipse cx="8.91" cy="20.8" rx="3.62" ry="0.91" opacity="0.2"/><path d="M9.38,21.36a.39.39,0,0,1-.29-.13c-.76-.87-1.47-1.74-2.16-2.66l-.2-.13-.06-.05a10.55,10.55,0,0,1-5.16-5.63l0-.11a8.64,8.64,0,0,1-.6-2.59c0-.38,0-.62,0-.62a8.56,8.56,0,0,1,5.69-8A7,7,0,0,1,9.38.81a7.1,7.1,0,0,1,2.87.6,8.54,8.54,0,0,1,5.66,8h0s0,.24,0,.63a8.67,8.67,0,0,1-.59,2.56.94.94,0,0,1-.06.15,10.61,10.61,0,0,1-5.15,5.62l-.06.05-.2.12c-.69.92-1.4,1.79-2.16,2.66A.39.39,0,0,1,9.38,21.36Z" transform="translate(-0.47 -0.43)" fill="#d15a09"/><path d="M9.38,1.18a6.7,6.7,0,0,1,2.72.58,8.15,8.15,0,0,1,5.43,7.68,4.24,4.24,0,0,1,0,.59,8.09,8.09,0,0,1-.56,2.46l0,.12v0a10.22,10.22,0,0,1-5.09,5.49h0l-.27.18C10.92,19.15,10.2,20,9.38,21,8.55,20,7.83,19.15,7.19,18.3l-.27-.18H7a10.22,10.22,0,0,1-5.09-5.49v0l0-.12A8.09,8.09,0,0,1,1.25,10a4.24,4.24,0,0,1,0-.59A8.15,8.15,0,0,1,6.65,1.76a6.71,6.71,0,0,1,2.73-.58m0-.75a7.45,7.45,0,0,0-3,.63A8.92,8.92,0,0,0,.47,9.44a5.17,5.17,0,0,0,0,.66,8.72,8.72,0,0,0,.61,2.67l0,.11,0,0a11,11,0,0,0,5.29,5.79l.08.05.13.09c.68.91,1.38,1.77,2.14,2.63a.76.76,0,0,0,1.13,0c.76-.86,1.46-1.72,2.14-2.63l.13-.09.08-.05a10.92,10.92,0,0,0,5.3-5.82l0-.11a8.57,8.57,0,0,0,.62-2.69,5.09,5.09,0,0,0,0-.66,8.92,8.92,0,0,0-5.9-8.37,7.44,7.44,0,0,0-3-.63Z" transform="translate(-0.47 -0.43)" fill="#fff"/><polygon points="8.91 3.94 10.17 7.81 14.24 7.81 10.95 10.21 12.2 14.08 8.91 11.69 5.62 14.08 6.87 10.21 3.58 7.81 7.65 7.81 8.91 3.94" fill="#fff"/></svg>