<svg xmlns="http://www.w3.org/2000/svg" viewBox="0 0 18.02 22.39"><title>office-ico</title><ellipse cx="9.01" cy="21.48" rx="3.62" ry="0.91" opacity="0.2"/><path d="M9.38,21.41a.39.39,0,0,1-.32-.15c-.77-.86-1.47-1.73-2.16-2.65l-.19-.12-.07,0a10.68,10.68,0,0,1-5.18-5.66l0-.11a9,9,0,0,1-.6-2.61c0-.38,0-.62,0-.62A8.59,8.59,0,0,1,6.51,1.36,7,7,0,0,1,9.38.76a7,7,0,0,1,2.89.61A8.58,8.58,0,0,1,18,9.44h0s0,.24,0,.63a8.59,8.59,0,0,1-.59,2.57,1,1,0,0,0-.06.16,10.65,10.65,0,0,1-5.17,5.64l-.07,0-.19.12c-.69.92-1.39,1.79-2.16,2.65A.39.39,0,0,1,9.38,21.41Z" transform="translate(-0.37 -0.33)" fill="#7c007c"/><path d="M9.38,1.18a6.7,6.7,0,0,1,2.72.58,8.15,8.15,0,0,1,5.43,7.68,4.24,4.24,0,0,1,0,.59,8.09,8.09,0,0,1-.56,2.46l0,.12v0a10.22,10.22,0,0,1-5.09,5.49h0l-.27.18C10.92,19.15,10.2,20,9.38,21,8.55,20,7.83,19.15,7.19,18.3l-.27-.18H7a10.22,10.22,0,0,1-5.09-5.49v0l0-.12A8.09,8.09,0,0,1,1.25,10a4.24,4.24,0,0,1,0-.59A8.15,8.15,0,0,1,6.65,1.76a6.71,6.71,0,0,1,2.73-.58m0-.85a7.57,7.57,0,0,0-3,.64,9,9,0,0,0-6,8.47,5.35,5.35,0,0,0,0,.67A8.86,8.86,0,0,0,1,12.8l0,.11,0,.05A11,11,0,0,0,6.4,18.79l.08.06.12.08c.68.9,1.38,1.75,2.14,2.61a.84.84,0,0,0,1.27,0c.76-.86,1.46-1.71,2.14-2.61l.12-.08.08-.06a11.05,11.05,0,0,0,5.33-5.86l.05-.11a9.11,9.11,0,0,0,.62-2.73,5.09,5.09,0,0,0,0-.66,9,9,0,0,0-6-8.46,7.56,7.56,0,0,0-3-.64Z" transform="translate(-0.37 -0.33)" fill="#fff"/><path d="M5.55,4.77v9.35h2.6V10.63h2.53v3.49H13.2V4.77Zm3.13,5.3h-2V8H8.68Zm0-2.61h-2V5.4H8.68Zm3.44,2.61h-2V8h2Zm0-2.61h-2V5.4h2Z" transform="translate(-0.37 -0.33)" fill="#fff"/><rect x="1.04" y="9.75" width="8.38" height="0.63" transform="translate(14.93 4.51) rotate(90)" fill="#7c007c"/><rect x="9.33" y="9.75" width="8.38" height="0.63" transform="translate(23.23 -3.79) rotate(90)" fill="#7c007c"/></svg>