<svg xmlns="http://www.w3.org/2000/svg" viewBox="0 0 16.46 16.46"><title>parkingC-ico</title><circle cx="8.23" cy="8.23" r="8.23" fill="#1b3e96"/><path d="M5.26,13.63v-10H8.52a11.83,11.83,0,0,1,2.41.15,2.62,2.62,0,0,1,1.45,1,3.08,3.08,0,0,1,.58,2,3.21,3.21,0,0,1-.34,1.56,2.67,2.67,0,0,1-.85,1,3,3,0,0,1-1,.48,12.34,12.34,0,0,1-2.11.14H7.29v3.79Zm2-8.35V8.13H8.4A5.55,5.55,0,0,0,10,8a1.34,1.34,0,0,0,.86-1.28,1.3,1.3,0,0,0-.32-.9,1.42,1.42,0,0,0-.82-.45,10.54,10.54,0,0,0-1.46-.07Z" transform="translate(-0.34 -0.38)" fill="#fff"/></svg>