<svg xmlns="http://www.w3.org/2000/svg" viewBox="0 0 16.32 19.8"><title>unisex-ico</title><path d="M16,11.54h0s0-.09.05-.13A8,8,0,0,0,16.63,9c0-.37,0-.59,0-.59A8.17,8.17,0,0,0,11.22.67a6.77,6.77,0,0,0-5.44,0A8.17,8.17,0,0,0,.34,8.36s0,.22,0,.59A8,8,0,0,0,.93,11.4s0,.08,0,.13H1A10.2,10.2,0,0,0,6.07,17h0l.27.17C7,18.07,7.67,19,8.5,19.9c.83-.94,1.54-1.83,2.18-2.69L11,17h0A10.2,10.2,0,0,0,16,11.54Z" transform="translate(-0.34 -0.1)" fill="#d15a09"/><path d="M4.68,3.69V13h2.6V9.54H9.8V13h2.52V3.69ZM7.81,9H5.75V6.93H7.81Zm0-2.62H5.75v-2H7.81ZM11.25,9H9.19V6.93h2.06Zm0-2.62H9.19v-2h2.06Z" transform="translate(-0.34 -0.1)" fill="#fff"/><rect x="0.17" y="8.67" width="8.38" height="0.63" transform="translate(13 4.53) rotate(90)" fill="#d15a09"/><rect x="8.46" y="8.67" width="8.38" height="0.63" transform="translate(21.3 -3.76) rotate(90)" fill="#d15a09"/><path d="M16,11.54h0s0-.09.05-.13A8,8,0,0,0,16.63,9c0-.37,0-.59,0-.59A8.17,8.17,0,0,0,11.22.67a6.77,6.77,0,0,0-5.44,0A8.17,8.17,0,0,0,.34,8.36s0,.22,0,.59A8,8,0,0,0,.93,11.4s0,.08,0,.13H1A10.2,10.2,0,0,0,6.07,17h0l.27.17C7,18.07,7.67,19,8.5,19.9c.83-.94,1.54-1.83,2.18-2.69L11,17h0A10.2,10.2,0,0,0,16,11.54Z" transform="translate(-0.34 -0.1)" fill="#08315f"/><circle cx="8.19" cy="2.85" r="1.1" fill="#fff"/><path d="M8.53,4.36H7.37A1.42,1.42,0,0,0,6,5.82V9.21a.47.47,0,1,0,.94,0V6.09h.24V14.7a.63.63,0,1,0,1.26,0v-5h.11Z" transform="translate(-0.34 -0.1)" fill="#fff"/><path d="M11.6,8.52l-.95-3.15a1.57,1.57,0,0,0-1.35-1H8.53V11h.16v3.82a.51.51,0,1,0,1,0V11h1.39L9.6,5.91h.27l.85,2.91C10.93,9.48,11.79,9.2,11.6,8.52Z" transform="translate(-0.34 -0.1)" fill="#fff"/><path d="M8.69,11H8.14V9.38l.69.07s0,.44,0,.49S8.69,11,8.69,11Z" transform="translate(-0.34 -0.1)" fill="#fff"/></svg>